<?xml version="1.0" encoding="UTF-8" standalone="no"?>
<!DOCTYPE svg PUBLIC "-//W3C//DTD SVG 1.1//EN"
 "http://www.w3.org/Graphics/SVG/1.1/DTD/svg11.dtd">
<!-- Generated by graphviz version 2.43.0 (0)
 -->
<!-- Title: %3 Pages: 1 -->
<svg width="314pt" height="305pt"
 viewBox="0.00 0.00 314.00 305.00" xmlns="http://www.w3.org/2000/svg" xmlns:xlink="http://www.w3.org/1999/xlink">
<g id="graph0" class="graph" transform="scale(1 1) rotate(0) translate(4 301)">
<title>%3</title>
<polygon fill="white" stroke="transparent" points="-4,4 -4,-301 310,-301 310,4 -4,4"/>
<!-- 27 -->
<g id="node1" class="node">
<title>27</title>
<ellipse fill="none" stroke="red" cx="99" cy="-192" rx="27" ry="18"/>
<text text-anchor="middle" x="99" y="-188.3" font-family="Times,serif" font-size="14.00">27</text>
</g>
<!-- 7 -->
<g id="node3" class="node">
<title>7</title>
<ellipse fill="none" stroke="black" cx="27" cy="-105" rx="27" ry="18"/>
<text text-anchor="middle" x="27" y="-101.3" font-family="Times,serif" font-size="14.00">7</text>
</g>
<!-- 27&#45;&gt;7 -->
<g id="edge2" class="edge">
<title>27&#45;&gt;7</title>
<path fill="none" stroke="black" d="M86.13,-175.8C75.07,-162.75 58.96,-143.74 46.35,-128.85"/>
<polygon fill="black" stroke="black" points="48.89,-126.43 39.76,-121.06 43.55,-130.96 48.89,-126.43"/>
<text text-anchor="middle" x="80.5" y="-144.8" font-family="Times,serif" font-size="14.00">left</text>
</g>
<!-- 32 -->
<g id="node5" class="node">
<title>32</title>
<ellipse fill="none" stroke="black" cx="99" cy="-105" rx="27" ry="18"/>
<text text-anchor="middle" x="99" y="-101.3" font-family="Times,serif" font-size="14.00">32</text>
</g>
<!-- 27&#45;&gt;32 -->
<g id="edge4" class="edge">
<title>27&#45;&gt;32</title>
<path fill="none" stroke="black" d="M99,-173.8C99,-162.16 99,-146.55 99,-133.24"/>
<polygon fill="black" stroke="black" points="102.5,-133.18 99,-123.18 95.5,-133.18 102.5,-133.18"/>
<text text-anchor="middle" x="117" y="-144.8" font-family="Times,serif" font-size="14.00">right</text>
</g>
<!-- 65 -->
<g id="node2" class="node">
<title>65</title>
<ellipse fill="none" stroke="black" cx="135" cy="-279" rx="27" ry="18"/>
<text text-anchor="middle" x="135" y="-275.3" font-family="Times,serif" font-size="14.00">65</text>
</g>
<!-- 65&#45;&gt;27 -->
<g id="edge1" class="edge">
<title>65&#45;&gt;27</title>
<path fill="none" stroke="black" d="M126.74,-261.76C123.86,-255.9 120.68,-249.2 118,-243 114.72,-235.41 111.43,-227.06 108.52,-219.39"/>
<polygon fill="black" stroke="black" points="111.73,-217.97 104.97,-209.82 105.17,-220.41 111.73,-217.97"/>
<text text-anchor="middle" x="130.5" y="-231.8" font-family="Times,serif" font-size="14.00">left</text>
</g>
<!-- 70 -->
<g id="node7" class="node">
<title>70</title>
<ellipse fill="none" stroke="red" cx="171" cy="-192" rx="27" ry="18"/>
<text text-anchor="middle" x="171" y="-188.3" font-family="Times,serif" font-size="14.00">70</text>
</g>
<!-- 65&#45;&gt;70 -->
<g id="edge6" class="edge">
<title>65&#45;&gt;70</title>
<path fill="none" stroke="black" d="M142.11,-261.21C147.22,-249.14 154.21,-232.64 160.03,-218.89"/>
<polygon fill="black" stroke="black" points="163.35,-220.04 164.02,-209.47 156.9,-217.31 163.35,-220.04"/>
<text text-anchor="middle" x="173" y="-231.8" font-family="Times,serif" font-size="14.00">right</text>
</g>
<!-- 26 -->
<g id="node4" class="node">
<title>26</title>
<ellipse fill="none" stroke="red" cx="27" cy="-18" rx="27" ry="18"/>
<text text-anchor="middle" x="27" y="-14.3" font-family="Times,serif" font-size="14.00">26</text>
</g>
<!-- 7&#45;&gt;26 -->
<g id="edge3" class="edge">
<title>7&#45;&gt;26</title>
<path fill="none" stroke="black" d="M27,-86.8C27,-75.16 27,-59.55 27,-46.24"/>
<polygon fill="black" stroke="black" points="30.5,-46.18 27,-36.18 23.5,-46.18 30.5,-46.18"/>
<text text-anchor="middle" x="45" y="-57.8" font-family="Times,serif" font-size="14.00">right</text>
</g>
<!-- 40 -->
<g id="node6" class="node">
<title>40</title>
<ellipse fill="none" stroke="red" cx="99" cy="-18" rx="27" ry="18"/>
<text text-anchor="middle" x="99" y="-14.3" font-family="Times,serif" font-size="14.00">40</text>
</g>
<!-- 32&#45;&gt;40 -->
<g id="edge5" class="edge">
<title>32&#45;&gt;40</title>
<path fill="none" stroke="black" d="M99,-86.8C99,-75.16 99,-59.55 99,-46.24"/>
<polygon fill="black" stroke="black" points="102.5,-46.18 99,-36.18 95.5,-46.18 102.5,-46.18"/>
<text text-anchor="middle" x="117" y="-57.8" font-family="Times,serif" font-size="14.00">right</text>
</g>
<!-- 69 -->
<g id="node8" class="node">
<title>69</title>
<ellipse fill="none" stroke="black" cx="171" cy="-105" rx="27" ry="18"/>
<text text-anchor="middle" x="171" y="-101.3" font-family="Times,serif" font-size="14.00">69</text>
</g>
<!-- 70&#45;&gt;69 -->
<g id="edge7" class="edge">
<title>70&#45;&gt;69</title>
<path fill="none" stroke="black" d="M171,-173.8C171,-162.16 171,-146.55 171,-133.24"/>
<polygon fill="black" stroke="black" points="174.5,-133.18 171,-123.18 167.5,-133.18 174.5,-133.18"/>
<text text-anchor="middle" x="183.5" y="-144.8" font-family="Times,serif" font-size="14.00">left</text>
</g>
<!-- 84 -->
<g id="node9" class="node">
<title>84</title>
<ellipse fill="none" stroke="black" cx="243" cy="-105" rx="27" ry="18"/>
<text text-anchor="middle" x="243" y="-101.3" font-family="Times,serif" font-size="14.00">84</text>
</g>
<!-- 70&#45;&gt;84 -->
<g id="edge8" class="edge">
<title>70&#45;&gt;84</title>
<path fill="none" stroke="black" d="M183.87,-175.8C194.93,-162.75 211.04,-143.74 223.65,-128.85"/>
<polygon fill="black" stroke="black" points="226.45,-130.96 230.24,-121.06 221.11,-126.43 226.45,-130.96"/>
<text text-anchor="middle" x="229" y="-144.8" font-family="Times,serif" font-size="14.00">right</text>
</g>
<!-- 77 -->
<g id="node10" class="node">
<title>77</title>
<ellipse fill="none" stroke="red" cx="207" cy="-18" rx="27" ry="18"/>
<text text-anchor="middle" x="207" y="-14.3" font-family="Times,serif" font-size="14.00">77</text>
</g>
<!-- 84&#45;&gt;77 -->
<g id="edge9" class="edge">
<title>84&#45;&gt;77</title>
<path fill="none" stroke="black" d="M235.89,-87.21C230.78,-75.14 223.79,-58.64 217.97,-44.89"/>
<polygon fill="black" stroke="black" points="221.1,-43.31 213.98,-35.47 214.65,-46.04 221.1,-43.31"/>
<text text-anchor="middle" x="239.5" y="-57.8" font-family="Times,serif" font-size="14.00">left</text>
</g>
<!-- 87 -->
<g id="node11" class="node">
<title>87</title>
<ellipse fill="none" stroke="red" cx="279" cy="-18" rx="27" ry="18"/>
<text text-anchor="middle" x="279" y="-14.3" font-family="Times,serif" font-size="14.00">87</text>
</g>
<!-- 84&#45;&gt;87 -->
<g id="edge10" class="edge">
<title>84&#45;&gt;87</title>
<path fill="none" stroke="black" d="M250.11,-87.21C255.22,-75.14 262.21,-58.64 268.03,-44.89"/>
<polygon fill="black" stroke="black" points="271.35,-46.04 272.02,-35.47 264.9,-43.31 271.35,-46.04"/>
<text text-anchor="middle" x="281" y="-57.8" font-family="Times,serif" font-size="14.00">right</text>
</g>
</g>
</svg>
